<svg xmlns="http://www.w3.org/2000/svg" version="1.1" xmlns:xlink="http://www.w3.org/1999/xlink" xmlns:svgjs="http://svgjs.dev/svgjs" width="1000" height="999" viewBox="0 0 1000 999"><g transform="matrix(1,0,0,1,-0.2157434402332683,-0.21552769679306039)"><svg viewBox="0 0 343 343" data-background-color="#ffffff" preserveAspectRatio="xMidYMid meet" height="999" width="1000" xmlns="http://www.w3.org/2000/svg" xmlns:xlink="http://www.w3.org/1999/xlink"><g id="tight-bounds" transform="matrix(1,0,0,1,0.07400000000001228,0.07400000000001228)"><svg viewBox="0 0 342.8515585177538 342.8515585177538" height="342.8515585177538" width="342.8515585177538"><g><svg></svg></g><g><svg viewBox="0 0 342.8515585177538 342.8515585177538" height="342.8515585177538" width="342.8515585177538"><g><path d="M0 171.426c0-94.676 76.75-171.426 171.426-171.426 94.676 0 171.426 76.75 171.426 171.426 0 94.676-76.75 171.426-171.426 171.426-94.676 0-171.426-76.75-171.426-171.426zM171.426 330.024c87.591 0 158.598-71.007 158.598-158.598 0-87.591-71.007-158.598-158.598-158.598-87.591 0-158.598 71.007-158.598 158.598 0 87.591 71.007 158.598 158.598 158.598z" data-fill-palette-color="tertiary" fill="#755bb4" stroke="transparent"></path><ellipse rx="164.56874808852183" ry="164.56874808852183" cx="171.4257792588769" cy="171.4257792588769" fill="#755bb4" stroke="transparent" stroke-width="0" fill-opacity="1" data-fill-palette-color="tertiary"></ellipse></g><g transform="matrix(1,0,0,1,64.84655864529836,100.30303164469753)"><svg viewBox="0 0 213.15844122715708 142.24549522835875" height="142.24549522835875" width="213.15844122715708"><g><svg viewBox="0 0 213.15844122715708 142.24549522835875" height="142.24549522835875" width="213.15844122715708"><g><svg viewBox="0 0 213.15844122715714 142.24549522835878" height="142.24549522835875" width="213.15844122715708"><g><svg viewBox="0 0 213.15844122715714 142.24549522835878" height="142.24549522835878" width="213.15844122715714"><g id="textblocktransform"><svg viewBox="0 0 213.15844122715714 142.24549522835878" height="142.24549522835878" width="213.15844122715714" id="textblock"><g><svg viewBox="0 0 213.15844122715714 142.24549522835878" height="142.24549522835878" width="213.15844122715714"><g transform="matrix(1,0,0,1,0,0)"><svg width="213.15844122715714" viewBox="0.15000000596046448 -33.099998474121094 50.79999923706055 33.89999771118164" height="142.24549522835878" data-palette-color="#ffffff"><path d="M50.65-33.1L50.95-31.5Q49.35-30.35 47.3-29.45L47.3-29.45 38.85-0.05Q35.65 0.55 30.9 0.8L30.9 0.8 25.6-16.05 24.45-10.2 21.35-0.05 21.3-0.05Q18.2 0.55 13.4 0.8L13.4 0.8 3.55-29.9 0.15-30.45 0.2-33.1 16.55-33.1 16.85-31.5Q15.45-30.45 12.85-29.25L12.85-29.25 17.2-13.2 17.55-6.15 17.85-6.15 23.05-24.2 20.9-31.05 29.4-32.9 34.65-14 35.1-6.15 35.2-6.15 41.55-29.7 36.8-30.45 36.85-33.1 50.65-33.1Z" opacity="1" transform="matrix(1,0,0,1,0,0)" fill="#ffffff" class="wordmark-text-0" data-fill-palette-color="quaternary" id="text-0"></path></svg></g></svg></g></svg></g></svg></g><g></g></svg></g></svg></g></svg></g></svg></g><defs></defs></svg><rect width="342.8515585177538" height="342.8515585177538" fill="none" stroke="none" visibility="hidden"></rect></g></svg></g></svg>